<svg width="600" height="400" viewBox="0 0 600 400" fill="none" xmlns="http://www.w3.org/2000/svg">
<path d="M73.3078 352.024C73.3078 365.153 65.5027 369.738 55.8754 369.738C55.6512 369.738 55.4283 369.736 55.2066 369.729C54.7607 369.72 54.3185 369.7 53.8823 369.669C45.1927 369.055 38.4417 364.234 38.4417 352.024C38.4417 339.39 54.585 323.446 55.8027 322.263L55.8051 322.262C55.8511 322.215 55.8753 322.192 55.8753 322.192C55.8753 322.192 73.3078 338.894 73.3078 352.024Z" fill="#3F3D56"/>
<path d="M55.2393 367.729L61.6159 358.82L55.2235 368.707L55.2066 369.729C54.7607 369.72 54.3185 369.7 53.8823 369.669L54.5693 356.534L54.5644 356.432L54.5765 356.413L54.6407 355.172L48.2326 345.26L54.6601 354.242L54.6759 354.505L55.1956 344.58L49.7096 334.339L55.2623 342.837L55.8027 322.263L55.8051 322.193V322.262L55.7155 338.486L61.1761 332.054L55.6924 339.883L55.5482 348.769L60.6479 340.242L55.5264 350.077L55.4465 355.017L62.8493 343.147L55.4186 356.741L55.2393 367.729Z" fill="#F2F2F2"/>
<path d="M294.794 276.108C290.136 259.201 264.275 246.74 244.096 243.524V235.402C244.469 235.263 244.84 235.12 245.208 234.973C245.102 233.35 244.776 231.749 244.239 230.214C252.859 226.71 260.302 220.823 265.697 213.242C271.376 207.299 275.656 200.162 278.223 192.353C280.79 184.545 281.581 176.261 280.536 168.107C279.492 159.954 276.639 152.137 272.187 145.227C267.734 138.317 261.794 132.489 254.801 128.17C256.719 126.96 258.209 125.179 259.061 123.078C259.912 120.976 260.083 118.661 259.548 116.457C259.013 114.254 257.8 112.274 256.08 110.797C254.359 109.319 252.219 108.42 249.96 108.224C251.804 103.869 252.134 99.0217 250.898 94.457C249.661 89.8922 246.929 85.8742 243.139 83.0457C239.348 80.2173 234.719 78.742 229.991 78.8558C225.263 78.9696 220.71 80.666 217.06 83.6735C220.28 81.9604 223.888 81.1099 227.534 81.2049C231.179 81.2998 234.739 82.3369 237.865 84.2152C240.991 86.0936 243.578 88.7492 245.373 91.9237C247.168 95.0981 248.112 98.6833 248.111 102.33C248.111 102.516 248.1 102.699 248.095 102.883C248.002 99.8239 247.247 96.8216 245.88 94.0834C244.513 91.3452 242.568 88.9367 240.179 87.0243C237.789 85.1119 235.013 83.7413 232.042 83.0074C229.071 82.2734 225.976 82.1936 222.971 82.7735C219.966 83.3534 217.123 84.5791 214.639 86.3658C212.154 88.1525 210.087 90.4577 208.581 93.1218C207.075 95.7859 206.166 98.7453 205.916 101.795C205.666 104.846 206.082 107.914 207.134 110.787C205.52 111.136 204.01 111.858 202.726 112.896C201.442 113.934 200.418 115.259 199.738 116.764C199.058 118.268 198.741 119.912 198.811 121.561C198.88 123.211 199.336 124.822 200.141 126.264C192.494 130.281 185.898 136.038 180.882 143.07C175.866 150.103 172.571 158.214 171.262 166.752C169.953 175.29 170.666 184.016 173.344 192.228C176.023 200.44 180.592 207.909 186.683 214.033C191.816 220.949 198.681 226.389 206.586 229.805V243.342C186.194 246.256 159.338 258.948 154.646 276.271C150.557 291.368 146.192 307.947 144.02 317.681C162.636 330.761 201.698 338.442 226.178 338.442C249.437 338.442 287.453 331.51 305.521 319.599C303.564 308.903 299.061 291.596 294.794 276.108ZM257.503 119.941C257.503 120.133 257.495 120.324 257.485 120.514C257.348 118.126 256.406 115.856 254.812 114.073C253.218 112.291 251.067 111.102 248.71 110.7C248.915 110.353 249.11 110.001 249.295 109.642C251.627 110.176 253.708 111.486 255.199 113.357C256.69 115.228 257.502 117.549 257.503 119.941V119.941Z" fill="url(#paint0_linear)"/>
<path d="M226.138 334.745C248.734 334.745 285.668 328.01 303.221 316.438C301.319 306.048 296.945 289.234 292.799 274.186C287.52 255.022 254.198 241.737 234.32 241.737H215.166C195.226 241.737 161.857 255.099 156.643 274.345C152.671 289.011 148.43 305.118 146.32 314.575C164.406 327.283 202.355 334.745 226.138 334.745Z" fill="#008891"/>
<path d="M225.774 229.683C255.381 229.683 279.382 205.682 279.382 176.075C279.382 146.469 255.381 122.468 225.774 122.468C196.168 122.468 172.167 146.469 172.167 176.075C172.167 205.682 196.168 229.683 225.774 229.683Z" fill="#F55F44"/>
<path d="M211.301 213.338H239.349C240.462 213.338 241.529 213.78 242.316 214.567C243.103 215.354 243.545 216.422 243.545 217.535V246.213C243.545 248.476 243.1 250.716 242.234 252.807C241.368 254.898 240.098 256.797 238.498 258.397C236.898 259.997 234.999 261.267 232.908 262.133C230.817 262.998 228.577 263.444 226.314 263.444H224.336C222.073 263.444 219.832 262.998 217.741 262.133C215.651 261.267 213.751 259.997 212.151 258.397C210.551 256.797 209.282 254.898 208.416 252.807C207.55 250.716 207.104 248.476 207.104 246.213V217.535C207.104 216.983 207.213 216.438 207.424 215.929C207.635 215.419 207.944 214.957 208.334 214.567C208.723 214.177 209.186 213.868 209.695 213.657C210.204 213.447 210.75 213.338 211.301 213.338V213.338Z" fill="#FDA57D"/>
<path opacity="0.05" d="M227.008 237.618C233.044 237.621 239.024 236.469 244.626 234.223C244.339 229.799 242.38 225.649 239.145 222.616C235.911 219.584 231.644 217.895 227.21 217.893H225.717C221.357 217.894 217.155 219.525 213.936 222.467C210.718 225.408 208.715 229.447 208.323 233.789C214.226 236.322 220.584 237.625 227.008 237.618V237.618Z" fill="black"/>
<path d="M225.869 233.063C252.062 233.063 273.296 211.829 273.296 185.636C273.296 159.443 252.062 138.209 225.869 138.209C199.676 138.209 178.443 159.443 178.443 185.636C178.443 211.829 199.676 233.063 225.869 233.063Z" fill="#FDA57D"/>
<path d="M209.806 133.873C215.475 133.873 220.071 129.278 220.071 123.608C220.071 117.939 215.475 113.343 209.806 113.343C204.137 113.343 199.541 117.939 199.541 123.608C199.541 129.278 204.137 133.873 209.806 133.873Z" fill="#F55F44"/>
<path d="M246.305 133.873C251.974 133.873 256.57 129.278 256.57 123.608C256.57 117.939 251.974 113.343 246.305 113.343C240.636 113.343 236.04 117.939 236.04 123.608C236.04 129.278 240.636 133.873 246.305 133.873Z" fill="#F55F44"/>
<path d="M226.915 127.03C238.254 127.03 247.446 117.838 247.446 106.499C247.446 95.1604 238.254 85.9686 226.915 85.9686C215.576 85.9686 206.384 95.1604 206.384 106.499C206.384 117.838 215.576 127.03 226.915 127.03Z" fill="#F55F44"/>
<path d="M248.586 111.062C246.545 111.058 244.55 111.667 242.858 112.808C245.213 111.967 247.794 112.014 250.116 112.942C252.439 113.87 254.343 115.614 255.47 117.847C256.597 120.079 256.869 122.647 256.237 125.066C255.604 127.486 254.109 129.591 252.034 130.986C254.312 130.175 256.231 128.585 257.451 126.496C258.671 124.408 259.114 121.955 258.701 119.572C258.289 117.189 257.048 115.028 255.197 113.471C253.346 111.913 251.005 111.06 248.586 111.062V111.062Z" fill="#F55F44"/>
<path d="M230.337 82.5468C225.571 82.5395 220.953 84.1972 217.28 87.2333C221.773 84.8444 226.993 84.2096 231.928 85.4518C236.863 86.6941 241.161 89.7249 243.987 93.9564C246.814 98.1879 247.968 103.319 247.226 108.353C246.484 113.387 243.899 117.967 239.972 121.203C244.017 119.053 247.227 115.612 249.091 111.428C250.955 107.243 251.366 102.555 250.258 98.1102C249.15 93.6652 246.587 89.7185 242.977 86.8983C239.367 84.078 234.918 82.5462 230.337 82.5468V82.5468Z" fill="#F55F44"/>
<path d="M191.557 142.998C191.557 142.998 197.26 180.638 269.117 160.107L233.759 129.311L191.557 142.998Z" fill="#F55F44"/>
<path d="M70.9179 358.554H41.392C35.9012 358.554 31.45 363.005 31.45 368.496V369.637C31.45 375.128 35.9012 379.579 41.392 379.579H70.9179C76.4087 379.579 80.8598 375.128 80.8598 369.637V368.496C80.8598 363.005 76.4087 358.554 70.9179 358.554Z" fill="#008891"/>
<g opacity="0.7">
<path opacity="0.7" d="M413.841 345.123V337.547H375.96V372.587C375.96 374.546 376.738 376.425 378.123 377.81C379.509 379.195 381.388 379.973 383.347 379.973H406.454C408.413 379.973 410.292 379.195 411.677 377.81C413.063 376.425 413.841 374.546 413.841 372.587V364.821C416.453 364.821 418.958 363.783 420.805 361.936C422.652 360.089 423.69 357.584 423.69 354.972C423.69 352.36 422.652 349.855 420.805 348.008C418.958 346.161 416.453 345.123 413.841 345.123V345.123ZM413.841 361.033V348.911C415.447 348.913 416.987 349.552 418.122 350.688C419.258 351.825 419.895 353.366 419.895 354.972C419.895 356.578 419.258 358.119 418.122 359.255C416.987 360.392 415.447 361.031 413.841 361.033V361.033Z" fill="url(#paint1_linear)"/>
</g>
<path d="M412.622 346.309C410.843 346.309 409.105 346.836 407.626 347.824C406.147 348.812 404.995 350.217 404.314 351.86C403.633 353.503 403.455 355.311 403.802 357.056C404.149 358.8 405.006 360.402 406.263 361.66C407.521 362.918 409.123 363.774 410.868 364.121C412.612 364.468 414.42 364.29 416.063 363.609C417.707 362.929 419.111 361.776 420.099 360.297C421.087 358.818 421.615 357.08 421.615 355.301C421.615 354.12 421.382 352.951 420.93 351.86C420.478 350.769 419.816 349.778 418.981 348.943C418.146 348.108 417.154 347.445 416.063 346.993C414.972 346.541 413.803 346.309 412.622 346.309ZM412.622 360.835C411.528 360.835 410.458 360.511 409.548 359.903C408.638 359.295 407.928 358.43 407.509 357.419C407.091 356.408 406.981 355.295 407.194 354.222C407.408 353.148 407.935 352.162 408.709 351.388C409.483 350.614 410.469 350.087 411.542 349.874C412.616 349.66 413.729 349.77 414.74 350.189C415.751 350.608 416.615 351.317 417.223 352.227C417.831 353.137 418.156 354.207 418.156 355.301C418.156 356.769 417.573 358.177 416.535 359.214C415.497 360.252 414.09 360.835 412.622 360.835Z" fill="#008891"/>
<path opacity="0.1" d="M412.622 346.309C410.843 346.309 409.105 346.836 407.626 347.824C406.147 348.812 404.995 350.217 404.314 351.86C403.633 353.503 403.455 355.311 403.802 357.056C404.149 358.8 405.006 360.402 406.263 361.66C407.521 362.918 409.123 363.774 410.868 364.121C412.612 364.468 414.42 364.29 416.063 363.609C417.707 362.929 419.111 361.776 420.099 360.297C421.087 358.818 421.615 357.08 421.615 355.301C421.615 354.12 421.382 352.951 420.93 351.86C420.478 350.769 419.816 349.778 418.981 348.943C418.146 348.108 417.154 347.445 416.063 346.993C414.972 346.541 413.803 346.309 412.622 346.309ZM412.622 360.835C411.528 360.835 410.458 360.511 409.548 359.903C408.638 359.295 407.928 358.43 407.509 357.419C407.091 356.408 406.981 355.295 407.194 354.222C407.408 353.148 407.935 352.162 408.709 351.388C409.483 350.614 410.469 350.087 411.542 349.874C412.616 349.66 413.729 349.77 414.74 350.189C415.751 350.608 416.615 351.317 417.223 352.227C417.831 353.137 418.156 354.207 418.156 355.301C418.156 356.769 417.573 358.177 416.535 359.214C415.497 360.252 414.09 360.835 412.622 360.835Z" fill="black"/>
<path d="M378.035 339.391H412.622V371.349C412.622 373.147 411.908 374.871 410.636 376.143C409.365 377.414 407.64 378.129 405.842 378.129H384.815C383.017 378.129 381.292 377.414 380.021 376.143C378.749 374.871 378.035 373.147 378.035 371.349V339.391Z" fill="#008891"/>
<path d="M448.938 378.129H0V393.347H448.938V378.129Z" fill="#E0E0E0"/>
<g opacity="0.7">
<path opacity="0.7" d="M309.846 268.189H139.092C133.523 268.189 129.009 272.703 129.009 278.272V368.046C129.009 373.614 133.523 378.129 139.092 378.129H309.846C315.415 378.129 319.929 373.614 319.929 368.046V278.272C319.929 272.703 315.415 268.189 309.846 268.189Z" fill="url(#paint2_linear)"/>
</g>
<path d="M297.81 270.217H151.128C140.823 270.217 132.468 278.572 132.468 288.878V359.468C132.468 369.774 140.823 378.129 151.128 378.129H297.81C308.116 378.129 316.47 369.774 316.47 359.468V288.878C316.47 278.572 308.116 270.217 297.81 270.217Z" fill="#535461"/>
<path d="M224.469 330.399C227.908 330.399 230.695 327.611 230.695 324.173C230.695 320.735 227.908 317.947 224.469 317.947C221.031 317.947 218.244 320.735 218.244 324.173C218.244 327.611 221.031 330.399 224.469 330.399Z" fill="white"/>
<path d="M429.915 393.347H19.0228V399.573H429.915V393.347Z" fill="#E0E0E0"/>
<path opacity="0.1" d="M429.915 393.347H19.0228V395.422H429.915V393.347Z" fill="black"/>
<path opacity="0.1" d="M406.396 339.391V371.384C406.396 373.173 405.686 374.888 404.421 376.153C403.156 377.418 401.441 378.129 399.652 378.129H403.111C404.899 378.129 406.615 377.418 407.88 376.153C409.145 374.888 409.855 373.173 409.855 371.384V339.391H406.396Z" fill="black"/>
<path d="M384.86 313.606C384.565 313.615 384.274 313.689 384.01 313.823C383.746 313.957 383.515 314.148 383.333 314.381C382.879 315.204 383.701 316.131 384.452 316.696C385.838 317.74 387.299 318.766 388.241 320.223C389.183 321.68 389.479 323.714 388.449 325.111C387.104 326.934 383.896 327.326 383.585 329.571C383.386 331.012 384.632 332.241 385.894 332.964C389.009 334.749 393.026 335.225 395.282 338.018C396.216 336.098 398.304 334.988 400.385 334.515C402.467 334.041 404.629 334.076 406.739 333.755C407.084 333.748 407.422 333.66 407.727 333.499C408.031 333.337 408.294 333.106 408.492 332.825C409.082 331.628 407.401 330.192 407.981 328.99C408.423 328.075 409.72 328.146 410.668 327.78C412.21 327.183 412.847 325.198 412.409 323.603C411.971 322.008 410.734 320.762 409.434 319.74C405.929 316.986 401.714 315.366 397.452 314.201C395.469 313.659 393.142 312.809 391.083 312.727C389.095 312.648 386.828 313.269 384.86 313.606Z" fill="#EEEEEE"/>
<path opacity="0.1" d="M600 0.427429H297.877V207.419H600V0.427429Z" fill="#535461"/>
<g opacity="0.5">
<path opacity="0.5" d="M393.415 20.8129H328.553C326.825 20.8129 325.424 22.2139 325.424 23.9421V83.3008C325.424 85.029 326.825 86.43 328.553 86.43H393.415C395.143 86.43 396.544 85.029 396.544 83.3008V23.9421C396.544 22.2139 395.143 20.8129 393.415 20.8129Z" fill="url(#paint3_linear)"/>
</g>
<path d="M392.642 21.3217H329.421C327.693 21.3217 326.292 22.7226 326.292 24.4508V82.2183C326.292 83.9465 327.693 85.3475 329.421 85.3475H392.642C394.37 85.3475 395.771 83.9465 395.771 82.2183V24.4508C395.771 22.7226 394.37 21.3217 392.642 21.3217Z" fill="#F5F5F5"/>
<path d="M340.235 31.8672H334.776C333.047 31.8672 331.647 33.2682 331.647 34.9964V39.2837C331.647 41.0119 333.047 42.4129 334.776 42.4129H340.235C341.963 42.4129 343.364 41.0119 343.364 39.2837V34.9964C343.364 33.2682 341.963 31.8672 340.235 31.8672Z" fill="#008891"/>
<path d="M392.905 31.8672H347.433C347.127 31.8672 346.879 32.1153 346.879 32.4213V32.4849C346.879 32.7909 347.127 33.039 347.433 33.039H392.905C393.211 33.039 393.459 32.7909 393.459 32.4849V32.4213C393.459 32.1153 393.211 31.8672 392.905 31.8672Z" fill="#E0E0E0"/>
<path d="M392.905 35.3824H347.433C347.127 35.3824 346.879 35.6305 346.879 35.9365V36.0001C346.879 36.3061 347.127 36.5542 347.433 36.5542H392.905C393.211 36.5542 393.459 36.3061 393.459 36.0001V35.9365C393.459 35.6305 393.211 35.3824 392.905 35.3824Z" fill="#E0E0E0"/>
<path d="M392.905 48.1413H331.029C330.723 48.1413 330.475 48.3894 330.475 48.6954V48.759C330.475 49.065 330.723 49.3131 331.029 49.3131H392.905C393.211 49.3131 393.459 49.065 393.459 48.759V48.6954C393.459 48.3894 393.211 48.1413 392.905 48.1413Z" fill="#E0E0E0"/>
<path d="M392.905 51.6565H331.029C330.723 51.6565 330.475 51.9046 330.475 52.2106V52.2742C330.475 52.5802 330.723 52.8283 331.029 52.8283H392.905C393.211 52.8283 393.459 52.5802 393.459 52.2742V52.2106C393.459 51.9046 393.211 51.6565 392.905 51.6565Z" fill="#E0E0E0"/>
<path d="M392.905 56.3435H331.029C330.723 56.3435 330.475 56.5915 330.475 56.8975V56.9611C330.475 57.2671 330.723 57.5152 331.029 57.5152H392.905C393.211 57.5152 393.459 57.2671 393.459 56.9611V56.8975C393.459 56.5915 393.211 56.3435 392.905 56.3435Z" fill="#E0E0E0"/>
<path d="M366.244 59.8587H331.029C330.723 59.8587 330.475 60.1067 330.475 60.4127V60.4763C330.475 60.7823 330.723 61.0304 331.029 61.0304H366.244C366.55 61.0304 366.799 60.7823 366.799 60.4763V60.4127C366.799 60.1067 366.55 59.8587 366.244 59.8587Z" fill="#E0E0E0"/>
<path d="M392.905 64.5342H331.029C330.723 64.5342 330.475 64.7823 330.475 65.0883V65.1519C330.475 65.4579 330.723 65.706 331.029 65.706H392.905C393.211 65.706 393.459 65.4579 393.459 65.1519V65.0883C393.459 64.7823 393.211 64.5342 392.905 64.5342Z" fill="#E0E0E0"/>
<path d="M392.905 68.0495H331.029C330.723 68.0495 330.475 68.2975 330.475 68.6035V68.6671C330.475 68.9731 330.723 69.2212 331.029 69.2212H392.905C393.211 69.2212 393.459 68.9731 393.459 68.6671V68.6035C393.459 68.2975 393.211 68.0495 392.905 68.0495Z" fill="#E0E0E0"/>
<path d="M392.905 72.7364H331.029C330.723 72.7364 330.475 72.9844 330.475 73.2904V73.3541C330.475 73.6601 330.723 73.9081 331.029 73.9081H392.905C393.211 73.9081 393.459 73.6601 393.459 73.3541V73.2904C393.459 72.9844 393.211 72.7364 392.905 72.7364Z" fill="#E0E0E0"/>
<path d="M366.244 76.2516H331.029C330.723 76.2516 330.475 76.4996 330.475 76.8056V76.8693C330.475 77.1753 330.723 77.4233 331.029 77.4233H366.244C366.55 77.4233 366.799 77.1753 366.799 76.8693V76.8056C366.799 76.4996 366.55 76.2516 366.244 76.2516Z" fill="#E0E0E0"/>
<g opacity="0.5">
<path opacity="0.5" d="M404.148 35.976H339.286C337.558 35.976 336.157 37.3769 336.157 39.1051V98.4639C336.157 100.192 337.558 101.593 339.286 101.593H404.148C405.876 101.593 407.277 100.192 407.277 98.4639V39.1051C407.277 37.3769 405.876 35.976 404.148 35.976Z" fill="url(#paint4_linear)"/>
</g>
<path d="M403.376 36.4847H340.155C338.426 36.4847 337.025 37.8857 337.025 39.6139V97.3813C337.025 99.1095 338.426 100.511 340.155 100.511H403.376C405.104 100.511 406.505 99.1095 406.505 97.3813V39.6139C406.505 37.8857 405.104 36.4847 403.376 36.4847Z" fill="white"/>
<path d="M350.968 47.0303H345.509C343.781 47.0303 342.38 48.4313 342.38 50.1595V54.4467C342.38 56.1749 343.781 57.5759 345.509 57.5759H350.968C352.696 57.5759 354.097 56.1749 354.097 54.4467V50.1595C354.097 48.4313 352.696 47.0303 350.968 47.0303Z" fill="#008891"/>
<path d="M403.638 47.0303H358.167C357.861 47.0303 357.612 47.2784 357.612 47.5844V47.648C357.612 47.954 357.861 48.202 358.167 48.202H403.638C403.944 48.202 404.193 47.954 404.193 47.648V47.5844C404.193 47.2784 403.944 47.0303 403.638 47.0303Z" fill="#E0E0E0"/>
<path d="M403.638 50.5455H358.167C357.861 50.5455 357.612 50.7936 357.612 51.0996V51.1632C357.612 51.4692 357.861 51.7172 358.167 51.7172H403.638C403.944 51.7172 404.193 51.4692 404.193 51.1632V51.0996C404.193 50.7936 403.944 50.5455 403.638 50.5455Z" fill="#E0E0E0"/>
<path d="M403.638 63.3044H341.762C341.456 63.3044 341.208 63.5524 341.208 63.8584V63.9221C341.208 64.2281 341.456 64.4761 341.762 64.4761H403.638C403.944 64.4761 404.192 64.2281 404.192 63.9221V63.8584C404.192 63.5524 403.944 63.3044 403.638 63.3044Z" fill="#E0E0E0"/>
<path d="M403.638 66.8196H341.762C341.456 66.8196 341.208 67.0676 341.208 67.3736V67.4373C341.208 67.7433 341.456 67.9913 341.762 67.9913H403.638C403.944 67.9913 404.192 67.7433 404.192 67.4373V67.3736C404.192 67.0676 403.944 66.8196 403.638 66.8196Z" fill="#E0E0E0"/>
<path d="M403.638 71.5065H341.762C341.456 71.5065 341.208 71.7546 341.208 72.0606V72.1242C341.208 72.4302 341.456 72.6783 341.762 72.6783H403.638C403.944 72.6783 404.192 72.4302 404.192 72.1242V72.0606C404.192 71.7546 403.944 71.5065 403.638 71.5065Z" fill="#E0E0E0"/>
<path d="M376.978 75.0217H341.762C341.456 75.0217 341.208 75.2698 341.208 75.5758V75.6394C341.208 75.9454 341.456 76.1935 341.762 76.1935H376.978C377.284 76.1935 377.532 75.9454 377.532 75.6394V75.5758C377.532 75.2698 377.284 75.0217 376.978 75.0217Z" fill="#E0E0E0"/>
<path d="M403.638 79.6973H341.762C341.456 79.6973 341.208 79.9454 341.208 80.2514V80.315C341.208 80.621 341.456 80.869 341.762 80.869H403.638C403.944 80.869 404.192 80.621 404.192 80.315V80.2514C404.192 79.9454 403.944 79.6973 403.638 79.6973Z" fill="#E0E0E0"/>
<path d="M403.638 83.2125H341.762C341.456 83.2125 341.208 83.4606 341.208 83.7666V83.8302C341.208 84.1362 341.456 84.3842 341.762 84.3842H403.638C403.944 84.3842 404.192 84.1362 404.192 83.8302V83.7666C404.192 83.4606 403.944 83.2125 403.638 83.2125Z" fill="#E0E0E0"/>
<path d="M403.638 87.8994H341.762C341.456 87.8994 341.208 88.1475 341.208 88.4535V88.5171C341.208 88.8231 341.456 89.0712 341.762 89.0712H403.638C403.944 89.0712 404.192 88.8231 404.192 88.5171V88.4535C404.192 88.1475 403.944 87.8994 403.638 87.8994Z" fill="#E0E0E0"/>
<path d="M376.978 91.4146H341.762C341.456 91.4146 341.208 91.6627 341.208 91.9687V92.0323C341.208 92.3383 341.456 92.5864 341.762 92.5864H376.978C377.284 92.5864 377.532 92.3383 377.532 92.0323V91.9687C377.532 91.6627 377.284 91.4146 376.978 91.4146Z" fill="#E0E0E0"/>
<path d="M475.842 45.9027H436.671V83.5375H475.842V45.9027Z" fill="url(#paint5_linear)"/>
<path d="M475.227 46.8244H437.285V82.7694H475.227V46.8244Z" fill="#F5F5F5"/>
<g opacity="0.6">
<path opacity="0.6" d="M463.399 68.1764H449.728V70.0197H463.399V68.1764Z" fill="#008891"/>
</g>
<path d="M467.931 71.5558H444.582V73.3991H467.931V71.5558Z" fill="#BDBDBD"/>
<g opacity="0.5">
<path opacity="0.5" d="M579.2 12.9724H493.783V113.332H579.2V12.9724Z" fill="url(#paint6_linear)"/>
</g>
<path d="M577.382 14.5878H496.408V111.11H577.382V14.5878Z" fill="white"/>
<path d="M565.468 56.9361H508.524V59.3593H565.468V56.9361Z" fill="#E0E0E0"/>
<path d="M565.468 72.8886H508.524V75.3117H565.468V72.8886Z" fill="#E0E0E0"/>
<path d="M565.468 77.1291H508.524V79.5523H565.468V77.1291Z" fill="#E0E0E0"/>
<path d="M532.554 68.6481H508.524V71.0712H532.554V68.6481Z" fill="#E0E0E0"/>
<path opacity="0.6" d="M565.468 68.6481H547.497V71.0712H565.468V68.6481Z" fill="#3AD29F"/>
<path d="M546.487 87.0237H528.515V89.4469H546.487V87.0237Z" fill="#008891"/>
<g opacity="0.5">
<path opacity="0.5" d="M494.698 141.558H443.946V183.244H494.698V141.558Z" fill="url(#paint7_linear)"/>
</g>
<path d="M494.008 142.346H444.537V182.554H494.008V142.346Z" fill="#F2F2F2"/>
<path d="M494.008 142.346H444.537V151.314H494.008V142.346Z" fill="#008891"/>
<path opacity="0.1" d="M494.008 142.346H444.537V151.314H494.008V142.346Z" fill="black"/>
<path d="M490.066 154.566H448.479V159.789H490.066V154.566Z" fill="#E0E0E0"/>
<path d="M478.832 163.731H448.479V165.505H478.832V163.731Z" fill="#E0E0E0"/>
<path d="M468.189 166.786H448.479V168.56H468.189V166.786Z" fill="#E0E0E0"/>
<path d="M474.496 169.841H448.479V171.615H474.496V169.841Z" fill="#E0E0E0"/>
<path d="M478.832 172.896H448.479V174.67H478.832V172.896Z" fill="#E0E0E0"/>
<path d="M458.629 175.951H448.479V177.725H458.629V175.951Z" fill="#E0E0E0"/>
<g opacity="0.5">
<path opacity="0.5" d="M475.074 126.268H412.167V177.937H475.074V126.268Z" fill="url(#paint8_linear)"/>
</g>
<path d="M474.219 127.245H412.9V177.082H474.219V127.245Z" fill="white"/>
<path d="M474.219 127.245H412.9V138.361H474.219V127.245Z" fill="#008891"/>
<path d="M469.333 142.392H417.786V148.866H469.333V142.392Z" fill="#F5F5F5"/>
<path d="M455.408 153.752H417.786V155.95H455.408V153.752Z" fill="#E0E0E0"/>
<path d="M442.216 157.538H417.786V159.737H442.216V157.538Z" fill="#E0E0E0"/>
<path d="M450.033 161.325H417.786V163.524H450.033V161.325Z" fill="#E0E0E0"/>
<path d="M455.408 165.111H417.786V167.31H455.408V165.111Z" fill="#E0E0E0"/>
<path d="M430.367 168.898H417.786V171.097H430.367V168.898Z" fill="#E0E0E0"/>
<path d="M435.131 144.591H420.473V146.545H435.131V144.591Z" fill="#69F0AE"/>
<path opacity="0.1" d="M326.39 263.478C331.081 263.478 334.884 259.675 334.884 254.985C334.884 250.294 331.081 246.491 326.39 246.491C321.7 246.491 317.897 250.294 317.897 254.985C317.897 259.675 321.7 263.478 326.39 263.478Z" fill="#535461"/>
<path opacity="0.1" d="M342.164 236.178C346.855 236.178 350.657 232.375 350.657 227.684C350.657 222.994 346.855 219.191 342.164 219.191C337.473 219.191 333.67 222.994 333.67 227.684C333.67 232.375 337.473 236.178 342.164 236.178Z" fill="#535461"/>
<defs>
<linearGradient id="paint0_linear" x1="224.77" y1="338.442" x2="224.77" y2="78.8497" gradientUnits="userSpaceOnUse">
<stop stop-color="#808080" stop-opacity="0.25"/>
<stop offset="0.53514" stop-color="#808080" stop-opacity="0.12"/>
<stop offset="1" stop-color="#808080" stop-opacity="0.1"/>
</linearGradient>
<linearGradient id="paint1_linear" x1="35865.8" y1="30410.2" x2="35865.8" y2="27821.6" gradientUnits="userSpaceOnUse">
<stop stop-color="#808080" stop-opacity="0.25"/>
<stop offset="0.53514" stop-color="#808080" stop-opacity="0.12"/>
<stop offset="1" stop-color="#808080" stop-opacity="0.1"/>
</linearGradient>
<linearGradient id="paint2_linear" x1="61758.5" y1="59983.2" x2="61758.5" y2="42601.6" gradientUnits="userSpaceOnUse">
<stop stop-color="#808080" stop-opacity="0.25"/>
<stop offset="0.53514" stop-color="#808080" stop-opacity="0.12"/>
<stop offset="1" stop-color="#808080" stop-opacity="0.1"/>
</linearGradient>
<linearGradient id="paint3_linear" x1="37245.4" y1="8136.21" x2="37245.4" y2="1944.43" gradientUnits="userSpaceOnUse">
<stop stop-color="#808080" stop-opacity="0.25"/>
<stop offset="0.53514" stop-color="#808080" stop-opacity="0.12"/>
<stop offset="1" stop-color="#808080" stop-opacity="0.1"/>
</linearGradient>
<linearGradient id="paint4_linear" x1="38353.9" y1="9582.19" x2="38353.9" y2="3390.41" gradientUnits="userSpaceOnUse">
<stop stop-color="#808080" stop-opacity="0.25"/>
<stop offset="0.53514" stop-color="#808080" stop-opacity="0.12"/>
<stop offset="1" stop-color="#808080" stop-opacity="0.1"/>
</linearGradient>
<linearGradient id="paint5_linear" x1="26137.8" y1="4543.94" x2="26137.8" y2="2507.1" gradientUnits="userSpaceOnUse">
<stop stop-color="#808080" stop-opacity="0.25"/>
<stop offset="0.53514" stop-color="#808080" stop-opacity="0.12"/>
<stop offset="1" stop-color="#808080" stop-opacity="0.1"/>
</linearGradient>
<linearGradient id="paint6_linear" x1="66393.8" y1="16307.8" x2="66393.8" y2="1823.51" gradientUnits="userSpaceOnUse">
<stop stop-color="#808080" stop-opacity="0.25"/>
<stop offset="0.53514" stop-color="#808080" stop-opacity="0.12"/>
<stop offset="1" stop-color="#808080" stop-opacity="0.1"/>
</linearGradient>
<linearGradient id="paint7_linear" x1="34697.9" y1="11101" x2="34697.9" y2="8601.99" gradientUnits="userSpaceOnUse">
<stop stop-color="#808080" stop-opacity="0.25"/>
<stop offset="0.53514" stop-color="#808080" stop-opacity="0.12"/>
<stop offset="1" stop-color="#808080" stop-opacity="0.1"/>
</linearGradient>
<linearGradient id="paint8_linear" x1="40543.9" y1="13315.9" x2="40543.9" y2="9476.69" gradientUnits="userSpaceOnUse">
<stop stop-color="#808080" stop-opacity="0.25"/>
<stop offset="0.53514" stop-color="#808080" stop-opacity="0.12"/>
<stop offset="1" stop-color="#808080" stop-opacity="0.1"/>
</linearGradient>
</defs>
</svg>
