<svg id="Layer_1" data-name="Layer 1" xmlns="http://www.w3.org/2000/svg" viewBox="0 0 361.52 466.31"><defs><style>.cls-1{fill:#008891;}.cls-2{fill:#e7e7de;}</style></defs><title>logo</title><path class="cls-1" d="M91.77,269.34c0-64.24.89-128.49-.5-192.7-.59-27.12,7.53-38.58,36.31-37.75,58.84,1.68,117.8-.8,176.61,1.43,15.52.6,33.5,8.86,45.36,19.28a967.48,967.48,0,0,1,85.12,85c9.57,10.79,16.6,27.88,16.82,42.22,1.48,93.66-.05,187.36,1.26,281,.39,28-9.22,37.56-37.07,37.23-96.34-1.13-192.71-.95-289.06,0-25.9.26-35.65-9-35.19-35.07C92.61,403.19,91.82,336.26,91.77,269.34Zm178.79,219.6v-.15c45.52,0,91.15,1.65,136.48-1.27,10.11-.65,27.25-17.12,27.49-26.65,2.18-87,2.11-174,.25-261-.19-8.92-15.29-23.32-25.29-25.13-27.19-4.91-66.41,5.92-80.2-8.82-15.63-16.69-10.32-54.34-11.24-83-.69-21.31-9.6-27.57-29.55-27.25-50.86.82-101.83-1.27-152.55,1.49-10,.54-27.22,17.47-27.36,27-1.82,124.48-.88,249-1.33,373.51-.09,25,11.66,32.14,34.78,31.55C184.86,488.15,227.72,488.94,270.56,488.94ZM396.75,150.73l-52.24-65C330.14,150.79,336.23,157.16,396.75,150.73Z" transform="translate(-91.24 -38.85)"/><path class="cls-2" d="M270.85,488.94c-42.84,0-85.71-.79-128.52.32-23.12.59-34.88-6.56-34.79-31.55.45-124.51-.48-249,1.33-373.51.14-9.57,17.37-26.5,27.36-27,50.73-2.76,101.69-.67,152.56-1.49,19.95-.32,28.85,5.94,29.54,27.25.93,28.64-4.38,66.29,11.24,83,13.8,14.74,53,3.91,80.21,8.82,10,1.81,25.09,16.21,25.28,25.13,1.86,87,1.94,174-.25,261-.24,9.53-17.37,26-27.48,26.65-45.33,2.92-91,1.27-136.48,1.27Z" transform="translate(-91.24 -38.85)"/><path class="cls-2" d="M396.45,150.73c-60.51,6.43-66.6.06-52.23-65Z" transform="translate(-91.24 -38.85)"/><path class="cls-1" d="M249.38,388.83c-26.3-24.65-50.1-44-69.75-67-6.68-7.8-2.93-24.54-3.95-37.19,12.95-.19,26.94-3.52,38.56.32s21.14,14.85,34.68,25.07c25.13-28.5,47-57.16,73.2-81.16,10.67-9.77,30.62-9.4,46.35-13.65-2.89,16.28-.57,36.7-9.61,48.12C325.25,305.83,287.9,345.32,249.38,388.83Z" transform="translate(-91.24 -38.85)"/></svg>