<svg width="41.58" height="54" viewBox="0 0 362 468" fill="none" xmlns="http://www.w3.org/2000/svg">
<path d="M0.770004 231.34C0.720004 167.1 1.66 102.84 0.270004 38.64C-0.319996 11.52 7.80001 0.0700038 36.58 0.890004C95.42 2.57 154.39 0.0900062 213.19 2.33001C228.71 2.92001 246.7 11.18 258.56 21.61C288.65 48.05 317.09 76.66 343.68 106.64C353.24 117.43 360.28 134.52 360.5 148.86C361.97 242.52 360.44 336.22 361.75 429.88C362.14 457.89 352.53 467.45 324.69 467.12C228.35 465.98 131.98 466.17 35.63 467.15C9.72001 467.41 -0.0199925 458.19 0.430008 432.08C1.61001 365.19 0.820004 298.26 0.770004 231.34ZM179.56 450.94C179.56 450.89 179.56 450.84 179.56 450.79C225.08 450.79 270.71 452.44 316.04 449.52C326.15 448.87 343.28 432.4 343.52 422.87C345.71 335.9 345.63 248.84 343.77 161.85C343.58 152.92 328.48 138.52 318.48 136.72C291.29 131.81 252.07 142.64 238.27 127.91C222.65 111.22 227.96 73.56 227.03 44.93C226.34 23.61 217.44 17.36 197.48 17.68C146.62 18.5 95.65 16.41 44.93 19.17C34.94 19.71 17.71 36.64 17.57 46.21C15.76 170.69 16.69 295.21 16.24 419.72C16.15 444.7 27.91 451.86 51.02 451.26C93.86 450.15 136.72 450.94 179.56 450.94ZM305.75 112.73C289.54 92.54 272.24 70.99 253.52 47.69C239.14 112.79 245.23 119.16 305.75 112.73Z" fill="#008891"/>
<path d="M179.85 450.94C137.01 450.94 94.14 450.15 51.33 451.26C28.21 451.86 16.45 444.7 16.55 419.72C17 295.21 16.06 170.69 17.88 46.21C18.02 36.64 35.25 19.71 45.24 19.17C95.96 16.41 146.93 18.5 197.79 17.68C217.74 17.36 226.65 23.61 227.34 44.93C228.27 73.56 222.95 111.22 238.58 127.91C252.38 142.65 291.6 131.81 318.79 136.72C328.79 138.53 343.89 152.93 344.08 161.85C345.94 248.83 346.01 335.9 343.83 422.87C343.59 432.4 326.46 448.87 316.35 449.52C271.02 452.43 225.39 450.79 179.87 450.79C179.85 450.84 179.85 450.89 179.85 450.94Z" fill="#E7E7DE"/>
<path d="M305.45 112.73C244.93 119.16 238.84 112.79 253.22 47.69C271.94 70.99 289.24 92.54 305.45 112.73Z" fill="#E7E7DE"/>
<path d="M158.38 350.83C132.08 326.19 108.28 306.8 88.63 283.87C81.95 276.07 85.7 259.34 84.68 246.68C97.63 246.49 111.61 243.16 123.23 247C134.97 250.88 144.37 261.85 157.92 272.07C183.04 243.58 204.94 214.91 231.12 190.92C241.78 181.15 261.74 181.51 277.46 177.27C274.57 193.56 276.89 213.97 267.85 225.39C234.25 267.83 196.9 307.32 158.38 350.83Z" fill="#008891"/>
</svg>
